<svg xmlns="http://www.w3.org/2000/svg" version="1.1" xmlns:xlink="http://www.w3.org/1999/xlink" xmlns:svgjs="http://svgjs.com/svgjs" width="100" height="100" viewBox="0 0 100 100"><g class="wrap" transform="matrix(1,0,0,1,0,0)"><defs class="background">
			<g id="background">
<path fill="url(#background-gradient)" stroke="none" d=" M 97.45 2.65 Q 94.8 0 91.15 0 L 8.85 0 Q 5.2 0 2.65 2.65 0 5.2 0 8.85 L 0 91.15 Q 0 94.8 2.65 97.45 5.2 100 8.85 100 L 91.15 100 Q 94.8 100 97.45 97.45 100 94.8 100 91.15 L 100 8.85 Q 100 5.2 97.45 2.65 Z"></path>
</g><g id="middle-1">
<path fill="#000000" fill-opacity="0.10196078431372549" stroke="none" d=" M 97.45 2.65 Q 94.85 0 91.15 0 L 8.85 0 Q 4.95 0 2.65 2.55 L 97.15 97.6 Q 100 95.05 100 91.15 L 100 8.85 Q 100 5.2 97.45 2.65 Z"></path>
</g><mask id="mask">
<path fill="#FFFFFF" stroke="none" d=" M 97.45 2.65 Q 94.8 0 91.15 0 L 8.85 0 Q 5.2 0 2.65 2.65 0 5.2 0 8.85 L 0 91.15 Q 0 94.8 2.65 97.45 5.2 100 8.85 100 L 91.15 100 Q 94.8 100 97.45 97.45 100 94.8 100 91.15 L 100 8.85 Q 100 5.2 97.45 2.65 Z"></path>
</mask>
			
	<linearGradient id="background-gradient" x1="0" y1="0" y2="1" x2="0" gradientTransform="rotate(90 0.5 0.5)">
		<stop stop-color="#b64e4e" offset="0%"></stop>
		<stop stop-color="#ac7ebd" offset="100%"></stop>
	</linearGradient>

			
			
			
			
		<linearGradient class="shapgradient" gradientTransform="rotate(0 0.5 0.5)" id="SvgjsLinearGradient1004"><stop stop-color="#a02fac" offset="0"></stop><stop stop-color="#ffffff" offset="1"></stop></linearGradient></defs><use xlink:href="#background" fill="url(#background-gradient)" class="background"></use><use xlink:href="#middle-1" class="background"></use><g class="geditable"><g mask="url(#mask)" fill="url(#SvgjsLinearGradient1004)" class="editable" transform="matrix(0.99,0,0,0.99,0.5,0.49999998092651765)"><path d="M452.93541057677555 -15.748504915973172C464.0354105767756 -26.848504915973166 568.4354105767756 -92.74850491597317 592.1354105767755 -68.94850491597317C615.8354105767755 -45.24850491597317 550.0354105767756 59.15149508402682 538.9354105767756 70.25149508402681C527.8354105767755 81.35149508402681 499.5354105767756 71.15149508402682 475.83541057677553 47.35149508402681C452.0354105767755 23.65149508402682 441.7354105767755 -4.6485049159731915 452.93541057677555 -15.748504915973186ZM259.1354105767756 -43.84850491597318C222.83541057677556 -64.44850491597317 171.23541057677556 -87.34850491597317 154.83541057677556 -70.84850491597317C138.23541057677556 -54.24850491597317 161.93541057677555 -1.4485049159731744 182.73541057677556 34.85149508402684C201.23541057677556 2.651495084026834 227.53541057677558 -24.44850491597316 259.1354105767756 -43.848504915973166ZM555.9354105767756 62.051495084026826C559.2354105767756 73.35149508402684 558.6354105767755 82.75149508402681 553.2354105767756 88.15149508402682C532.9354105767756 108.45149508402683 465.73541057677556 61.15149508402682 443.93541057677555 18.051495084026826C425.93541057677555 -14.248504915973172 432.83541057677553 -35.34850491597318 458.83541057677553 -30.648504915973177C464.5354105767755 -34.24850491597317 471.13541057677554 -38.24850491597317 478.43541057677555 -42.24850491597317C448.63541057677554 -57.74850491597317 414.83541057677553 -66.54850491597317 378.93541057677555 -66.54850491597317C259.83541057677553 -66.54850491597317 163.33541057677556 29.95149508402683 163.33541057677556 149.05149508402684C163.33541057677556 268.05149508402684 259.83541057677553 364.65149508402686 378.93541057677555 364.65149508402686S594.5354105767756 268.15149508402686 594.5354105767756 149.05149508402684C594.5354105767756 110.65149508402682 584.4354105767756 74.55149508402683 566.8354105767755 43.251495084026814C562.9354105767757 50.251495084026814 559.2354105767756 56.551495084026826 555.9354105767757 62.051495084026826Z " transform="matrix(0.133929301285342,0,0,0.133929301285342,0.011265536589735583,30.703812575791876)"></path></g></g></g></svg>